# xmcd CD database file
#
# Track frame offsets:
#	150
#	12345
#	28870
#	41535
#	62372
#	81220
#	92322
#	104455
#	123370
#	143912
#	163080
#
# Disc length: 2465 seconds
#
# Revision: 0
# Processed by: cddbd v1.5.1PL0 Copyright (c) Steve Scherf et al.
# Submitted via: CDex 1.51
#
DISCID=85099f0b
DTITLE=Various Artist - BEACH BOYS BEST OF TRIBUTE
DYEAR=2004
DGENRE=Pop
TTITLE0=Would'nt It Be Nice/槇原　敬之
TTITLE1=Do You Want to Dance/大黒　摩季
TTITLE2=Surfin' U.S.A/小倉　博和(山弦)
TTITLE3=Kokomo/Great3 with 佐橋　佳幸(山弦)
TTITLE4=Sail on Sailer/GB's
TTITLE5=Fun,Fun,Fun/naja
TTITLE6=Caroline No/佐橋　佳幸(山弦) with B-Girls(A.K.A - Ms.T)
TTITLE7=California Girls/渡辺　等
TTITLE8=Good Vibrations/槇原　敬之　with 高野　寛
TTITLE9=Surfer Girl/Ai Miyakawa
TTITLE10=In My Room/GB's feturing 柴田　俊文
EXTD=YEAR: 2004
EXTT0=
EXTT1=
EXTT2=
EXTT3=
EXTT4=
EXTT5=
EXTT6=
EXTT7=
EXTT8=
EXTT9=
EXTT10=
PLAYORDER=
